<svg xmlns="http://www.w3.org/2000/svg" version="1.1" xmlns:xlink="http://www.w3.org/1999/xlink" xmlns:svgjs="http://svgjs.dev/svgjs" viewBox="0 0 6.133654121862261 6.981640643195007"><g transform="matrix(1,0,0,1,0.5450985453061303,5.162860457263877)"><rect width="6.133654121862261" height="6.981640643195007" x="-0.5450985453061301" y="-5.162860457263878" fill="#3a868f"></rect><g><path d=" M 0.10693359375 0.010986328125 L 0.296630859375 0.010986328125 L 0.296630859375 1.261962890625 L 0.10693359375 1.261962890625 L 0.10693359375 0.010986328125 Z M 0.517822265625 0.010986328125 L 0.671630859375 0.010986328125 L 0.974853515625 0.84814453125 L 0.979248046875 0.84814453125 Q 0.97705078125 0.81884765625 0.973388671875 0.782958984375 Q 0.9697265625 0.7470703125 0.966796875 0.7012939453125 Q 0.9638671875 0.655517578125 0.961669921875 0.59765625 Q 0.95947265625 0.539794921875 0.95947265625 0.46728515625 L 0.95947265625 0.010986328125 L 1.12939453125 0.010986328125 L 1.12939453125 1.261962890625 L 0.97412109375 1.261962890625 L 0.67236328125 0.44677734375 L 0.66650390625 0.44677734375 Q 0.668701171875 0.479736328125 0.67236328125 0.5181884765625 Q 0.676025390625 0.556640625 0.678955078125 0.608642578125 Q 0.681884765625 0.66064453125 0.68408203125 0.7298583984375 Q 0.686279296875 0.799072265625 0.686279296875 0.894287109375 L 0.686279296875 1.261962890625 L 0.517822265625 1.261962890625 L 0.517822265625 0.010986328125 Z M 1.30224609375 1.008544921875 Q 1.30224609375 0.96826171875 1.3070068359375 0.9342041015625 Q 1.311767578125 0.900146484375 1.3212890625 0.860595703125 L 1.468505859375 0.860595703125 L 1.468505859375 0.92138671875 Q 1.468505859375 0.971923828125 1.4747314453125 1.0107421875 Q 1.48095703125 1.049560546875 1.4952392578125 1.0762939453125 Q 1.509521484375 1.10302734375 1.5333251953125 1.1165771484375 Q 1.55712890625 1.130126953125 1.591552734375 1.130126953125 Q 1.645751953125 1.130126953125 1.67431640625 1.1004638671875 Q 1.702880859375 1.07080078125 1.702880859375 1.013671875 Q 1.702880859375 0.984375 1.6988525390625 0.9598388671875 Q 1.69482421875 0.935302734375 1.6849365234375 0.9111328125 Q 1.675048828125 0.886962890625 1.658203125 0.8602294921875 Q 1.641357421875 0.83349609375 1.614990234375 0.800537109375 L 1.417236328125 0.5654296875 Q 1.364501953125 0.498046875 1.3359375 0.4295654296875 Q 1.307373046875 0.361083984375 1.307373046875 0.283447265625 Q 1.307373046875 0.22119140625 1.3267822265625 0.169189453125 Q 1.34619140625 0.1171875 1.3828125 0.0794677734375 Q 1.41943359375 0.041748046875 1.4732666015625 0.0208740234375 Q 1.527099609375 0 1.59521484375 0 Q 1.677978515625 0 1.7332763671875 0.0234375 Q 1.78857421875 0.046875 1.821533203125 0.0849609375 Q 1.8544921875 0.123046875 1.8680419921875 0.1702880859375 Q 1.881591796875 0.217529296875 1.881591796875 0.26513671875 Q 1.881591796875 0.305419921875 1.8753662109375 0.3394775390625 Q 1.869140625 0.37353515625 1.861083984375 0.41455078125 L 1.714599609375 0.41455078125 L 1.714599609375 0.355224609375 Q 1.714599609375 0.255615234375 1.68603515625 0.2025146484375 Q 1.657470703125 0.1494140625 1.593017578125 0.1494140625 Q 1.53955078125 0.1494140625 1.51318359375 0.1790771484375 Q 1.48681640625 0.208740234375 1.48681640625 0.258544921875 Q 1.48681640625 0.284912109375 1.4908447265625 0.30615234375 Q 1.494873046875 0.327392578125 1.5025634765625 0.3453369140625 Q 1.51025390625 0.36328125 1.521240234375 0.380126953125 Q 1.5322265625 0.39697265625 1.546142578125 0.415283203125 L 1.7666015625 0.681884765625 Q 1.82666015625 0.76025390625 1.85888671875 0.8323974609375 Q 1.89111328125 0.904541015625 1.89111328125 0.985107421875 Q 1.89111328125 1.0517578125 1.8702392578125 1.105224609375 Q 1.849365234375 1.15869140625 1.810546875 1.196044921875 Q 1.771728515625 1.2333984375 1.716796875 1.2535400390625 Q 1.661865234375 1.273681640625 1.593017578125 1.273681640625 Q 1.508056640625 1.273681640625 1.4520263671875 1.2509765625 Q 1.39599609375 1.228271484375 1.3626708984375 1.19091796875 Q 1.329345703125 1.153564453125 1.3157958984375 1.10595703125 Q 1.30224609375 1.058349609375 1.30224609375 1.008544921875 Z M 2.0537109375 0.010986328125 L 2.244873046875 0.010986328125 L 2.244873046875 0.927978515625 Q 2.244873046875 0.986572265625 2.250732421875 1.025390625 Q 2.256591796875 1.064208984375 2.2694091796875 1.0872802734375 Q 2.2822265625 1.1103515625 2.3023681640625 1.1202392578125 Q 2.322509765625 1.130126953125 2.350341796875 1.130126953125 Q 2.378173828125 1.130126953125 2.3990478515625 1.1202392578125 Q 2.419921875 1.1103515625 2.4334716796875 1.0872802734375 Q 2.447021484375 1.064208984375 2.4539794921875 1.025390625 Q 2.4609375 0.986572265625 2.4609375 0.927978515625 L 2.4609375 0.010986328125 L 2.64990234375 0.010986328125 L 2.64990234375 0.87744140625 Q 2.64990234375 0.968994140625 2.63525390625 1.0341796875 Q 2.62060546875 1.099365234375 2.596435546875 1.143310546875 Q 2.572265625 1.187255859375 2.5411376953125 1.212890625 Q 2.510009765625 1.238525390625 2.4766845703125 1.2520751953125 Q 2.443359375 1.265625 2.410400390625 1.269287109375 Q 2.37744140625 1.27294921875 2.350341796875 1.27294921875 Q 2.3232421875 1.27294921875 2.2906494140625 1.269287109375 Q 2.258056640625 1.265625 2.22509765625 1.2520751953125 Q 2.192138671875 1.238525390625 2.161376953125 1.212890625 Q 2.130615234375 1.187255859375 2.1064453125 1.143310546875 Q 2.082275390625 1.099365234375 2.0679931640625 1.0345458984375 Q 2.0537109375 0.9697265625 2.0537109375 0.87744140625 L 2.0537109375 0.010986328125 Z M 2.86669921875 0.010986328125 L 3.072509765625 0.010986328125 Q 3.107666015625 0.010986328125 3.1497802734375 0.013916015625 Q 3.19189453125 0.016845703125 3.2340087890625 0.0281982421875 Q 3.276123046875 0.03955078125 3.3153076171875 0.062255859375 Q 3.3544921875 0.0849609375 3.3848876953125 0.12451171875 Q 3.415283203125 0.1640625 3.43359375 0.2237548828125 Q 3.451904296875 0.283447265625 3.451904296875 0.368408203125 L 3.451904296875 0.39990234375 Q 3.451904296875 0.542724609375 3.410888671875 0.6324462890625 Q 3.369873046875 0.72216796875 3.2900390625 0.76171875 L 3.49072265625 1.261962890625 L 3.2900390625 1.261962890625 L 3.123779296875 0.7939453125 L 3.052734375 0.7939453125 L 3.052734375 1.261962890625 L 2.86669921875 1.261962890625 L 2.86669921875 0.010986328125 Z M 3.081298828125 0.656982421875 Q 3.131103515625 0.656982421875 3.16552734375 0.64599609375 Q 3.199951171875 0.635009765625 3.22119140625 0.6090087890625 Q 3.242431640625 0.5830078125 3.251953125 0.5401611328125 Q 3.261474609375 0.497314453125 3.261474609375 0.434326171875 L 3.261474609375 0.33544921875 Q 3.261474609375 0.287109375 3.252685546875 0.251953125 Q 3.243896484375 0.216796875 3.2230224609375 0.194091796875 Q 3.2021484375 0.17138671875 3.167724609375 0.160400390625 Q 3.13330078125 0.1494140625 3.081298828125 0.1494140625 L 3.052734375 0.1494140625 L 3.052734375 0.656982421875 L 3.081298828125 0.656982421875 Z M 3.63720703125 0.010986328125 L 3.828369140625 0.010986328125 L 3.828369140625 0.927978515625 Q 3.828369140625 0.986572265625 3.834228515625 1.025390625 Q 3.840087890625 1.064208984375 3.8529052734375 1.0872802734375 Q 3.86572265625 1.1103515625 3.8858642578125 1.1202392578125 Q 3.906005859375 1.130126953125 3.933837890625 1.130126953125 Q 3.961669921875 1.130126953125 3.9825439453125 1.1202392578125 Q 4.00341796875 1.1103515625 4.0169677734375 1.0872802734375 Q 4.030517578125 1.064208984375 4.0374755859375 1.025390625 Q 4.04443359375 0.986572265625 4.04443359375 0.927978515625 L 4.04443359375 0.010986328125 L 4.2333984375 0.010986328125 L 4.2333984375 0.87744140625 Q 4.2333984375 0.968994140625 4.21875 1.0341796875 Q 4.2041015625 1.099365234375 4.179931640625 1.143310546875 Q 4.15576171875 1.187255859375 4.1246337890625 1.212890625 Q 4.093505859375 1.238525390625 4.0601806640625 1.2520751953125 Q 4.02685546875 1.265625 3.993896484375 1.269287109375 Q 3.9609375 1.27294921875 3.933837890625 1.27294921875 Q 3.90673828125 1.27294921875 3.8741455078125 1.269287109375 Q 3.841552734375 1.265625 3.80859375 1.2520751953125 Q 3.775634765625 1.238525390625 3.744873046875 1.212890625 Q 3.714111328125 1.187255859375 3.68994140625 1.143310546875 Q 3.665771484375 1.099365234375 3.6514892578125 1.0345458984375 Q 3.63720703125 0.9697265625 3.63720703125 0.87744140625 L 3.63720703125 0.010986328125 Z M 4.40185546875 1.008544921875 Q 4.40185546875 0.96826171875 4.4066162109375 0.9342041015625 Q 4.411376953125 0.900146484375 4.4208984375 0.860595703125 L 4.568115234375 0.860595703125 L 4.568115234375 0.92138671875 Q 4.568115234375 0.971923828125 4.5743408203125 1.0107421875 Q 4.58056640625 1.049560546875 4.5948486328125 1.0762939453125 Q 4.609130859375 1.10302734375 4.6329345703125 1.1165771484375 Q 4.65673828125 1.130126953125 4.691162109375 1.130126953125 Q 4.745361328125 1.130126953125 4.77392578125 1.1004638671875 Q 4.802490234375 1.07080078125 4.802490234375 1.013671875 Q 4.802490234375 0.984375 4.7984619140625 0.9598388671875 Q 4.79443359375 0.935302734375 4.7845458984375 0.9111328125 Q 4.774658203125 0.886962890625 4.7578125 0.8602294921875 Q 4.740966796875 0.83349609375 4.714599609375 0.800537109375 L 4.516845703125 0.5654296875 Q 4.464111328125 0.498046875 4.435546875 0.4295654296875 Q 4.406982421875 0.361083984375 4.406982421875 0.283447265625 Q 4.406982421875 0.22119140625 4.4263916015625 0.169189453125 Q 4.44580078125 0.1171875 4.482421875 0.0794677734375 Q 4.51904296875 0.041748046875 4.5728759765625 0.0208740234375 Q 4.626708984375 0 4.69482421875 0 Q 4.777587890625 0 4.8328857421875 0.0234375 Q 4.88818359375 0.046875 4.921142578125 0.0849609375 Q 4.9541015625 0.123046875 4.9676513671875 0.1702880859375 Q 4.981201171875 0.217529296875 4.981201171875 0.26513671875 Q 4.981201171875 0.305419921875 4.9749755859375 0.3394775390625 Q 4.96875 0.37353515625 4.960693359375 0.41455078125 L 4.814208984375 0.41455078125 L 4.814208984375 0.355224609375 Q 4.814208984375 0.255615234375 4.78564453125 0.2025146484375 Q 4.757080078125 0.1494140625 4.692626953125 0.1494140625 Q 4.63916015625 0.1494140625 4.61279296875 0.1790771484375 Q 4.58642578125 0.208740234375 4.58642578125 0.258544921875 Q 4.58642578125 0.284912109375 4.5904541015625 0.30615234375 Q 4.594482421875 0.327392578125 4.6021728515625 0.3453369140625 Q 4.60986328125 0.36328125 4.620849609375 0.380126953125 Q 4.6318359375 0.39697265625 4.645751953125 0.415283203125 L 4.8662109375 0.681884765625 Q 4.92626953125 0.76025390625 4.95849609375 0.8323974609375 Q 4.99072265625 0.904541015625 4.99072265625 0.985107421875 Q 4.99072265625 1.0517578125 4.9698486328125 1.105224609375 Q 4.948974609375 1.15869140625 4.91015625 1.196044921875 Q 4.871337890625 1.2333984375 4.81640625 1.2535400390625 Q 4.761474609375 1.273681640625 4.692626953125 1.273681640625 Q 4.607666015625 1.273681640625 4.5516357421875 1.2509765625 Q 4.49560546875 1.228271484375 4.4622802734375 1.19091796875 Q 4.428955078125 1.153564453125 4.4154052734375 1.10595703125 Q 4.40185546875 1.058349609375 4.40185546875 1.008544921875 Z" fill="#ffffff" fill-rule="nonzero"></path></g><g></g><g clip-path="url(&quot;#SvgjsClipPath1023&quot;)"><g clip-path="url(&quot;#SvgjsClipPath1008&quot;)"><path d=" M 0.4031066485630982 -3.1910475209686107 C 0.38818960074503184 -3.1910475209686107 0.37414310010537044 -3.1980707712884406 0.36519287141453216 -3.2100044095428943 C 0.34948847071880407 -3.230943610470531 0.3537321147740366 -3.2606491188571582 0.37467131570167406 -3.276353519552886 L 2.1449224414339727 -4.608264510782032 C 2.165836874556957 -4.623989627406192 2.19553811212088 -4.619789023807866 2.2112715514439643 -4.5988808509377614 C 2.2270008186314376 -4.577971371391019 2.222808820907094 -4.548270982655793 2.2019068484882656 -4.5325317409277694 L 0.43165572275596864 -3.200620749698624 C 0.4234409907837756 -3.19439602588249 0.41341338479731715 -3.1910335152429408 0.4031066485630982 -3.191047520968611 Z" fill="#ececd9" transform="matrix(1,0,0,1,0,0)" fill-rule="nonzero"></path></g><g clip-path="url(&quot;#SvgjsClipPath1008&quot;)"><path d=" M 0.7351934226073911 -1.2619945396495402 C 0.7090194214478474 -1.2619945396495402 0.6878012011716831 -1.283212759925703 0.6878012011716831 -1.3093867610852485 L 0.6878012011716831 -3.4883294475905218 C 0.6878012011716831 -3.5145034487500677 0.7090194214478474 -3.5357216690262296 0.7351934226073911 -3.5357216690262296 C 0.7613674237669363 -3.5357216690262296 0.7825856440431005 -3.5145034487500677 0.7825856440431005 -3.4883294475905218 L 0.7825856440431005 -1.3093867610852485 C 0.7825856440431005 -1.283212759925703 0.7613674237669363 -1.2619945396495402 0.7351934226073911 -1.2619945396495402 Z" fill="#ececd9" transform="matrix(1,0,0,1,0,0)" fill-rule="nonzero"></path></g><g clip-path="url(&quot;#SvgjsClipPath1008&quot;)"><path d=" M 2.3930681128713402 -1.9846311321012204 L 1.6310011921851493 -1.9846311321012204 L 1.6310011921851493 -3.069097856770246 L 2.715524787519898 -3.069097856770246 L 2.715524787519898 -2.526930843545743 C 2.715524787519898 -2.500756842386197 2.694306567243735 -2.479538622110035 2.6681325660841897 -2.479538622110035 C 2.641958564924643 -2.479538622110035 2.620740344648482 -2.500756842386197 2.620740344648482 -2.526930843545743 L 2.620740344648482 -2.9743134138988294 L 1.7257856350565666 -2.9743134138988294 L 1.7257856350565666 -2.079358704306914 L 2.3930681128713402 -2.079358704306914 C 2.4192421140308857 -2.079358704306914 2.440460334307048 -2.058140484030752 2.440460334307048 -2.031966482871206 C 2.440428952137625 -2.0058146938416064 2.419219920730242 -1.9846311132719126 2.3930681128713402 -1.9846311321012204 Z" fill="#ececd9" transform="matrix(1,0,0,1,0,0)" fill-rule="nonzero"></path></g><g clip-path="url(&quot;#SvgjsClipPath1008&quot;)"><path d=" M 2.4459199182164415 -2.2542928720704007 L 1.9007008459314796 -2.2542928720704007 L 1.9007008459314796 -2.7521007660310803 C 1.9007008459314796 -2.7782747671906263 1.921919066207644 -2.7994929874667887 1.9480930673671892 -2.7994929874667887 C 1.974267068526733 -2.7994929874667887 1.995485288802897 -2.7782747671906263 1.995485288802897 -2.7521007660310803 L 1.995485288802897 -2.349077314941817 L 2.3511354753450258 -2.349077314941817 L 2.3511354753450258 -2.7521007660310803 C 2.3511354753450258 -2.7782747671906263 2.372353695621188 -2.7994929874667887 2.3985276967807336 -2.7994929874667887 C 2.4247016979402787 -2.7994929874667887 2.4459199182164415 -2.7782747671906263 2.4459199182164415 -2.7521007660310803 Z" fill="#ececd9" transform="matrix(1,0,0,1,0,0)" fill-rule="nonzero"></path></g><g clip-path="url(&quot;#SvgjsClipPath1008&quot;)"><path d=" M 2.4859568668853282 -1.2619945396495402 L 0.7352313363845413 -1.2619945396495402 C 0.709057335224996 -1.2619945396495402 0.6878391149488334 -1.283212759925703 0.6878391149488334 -1.3093867610852485 C 0.6878391149488334 -1.335560762244794 0.709057335224996 -1.3567789825209569 0.7352313363845413 -1.3567789825209569 L 2.4859568668853282 -1.3567789825209569 C 2.5121308680448733 -1.3567789825209569 2.533349088321036 -1.335560762244794 2.533349088321036 -1.3093867610852485 C 2.533349088321036 -1.283212759925703 2.5121308680448733 -1.2619945396495402 2.4859568668853282 -1.2619945396495402 Z" fill="#ececd9" transform="matrix(1,0,0,1,0,0)" fill-rule="nonzero"></path></g><g clip-path="url(&quot;#SvgjsClipPath1008&quot;)"><path d=" M 1.4969759899649673 -3.5673796729452834 C 1.4820589421469024 -3.5673796729452834 1.468012441507241 -3.5744029232651133 1.4590622128164012 -3.586336561519566 C 1.4433578121206732 -3.6072757624472027 1.4476014561759072 -3.6369812708338305 1.468540657103543 -3.652685671529558 L 2.144903484545398 -4.161583345306194 C 2.1658426854730335 -4.177287746001921 2.1955481938596613 -4.173044101946688 2.211252594555388 -4.152104901019052 C 2.226981861742864 -4.13119542147231 2.22278986401852 -4.101495032737084 2.201887891599692 -4.085755791009061 L 1.5255061072692642 -3.5768581172324247 C 1.5172852228629892 -3.570669919077903 1.507265559978515 -3.5673411274219324 1.4969759899649704 -3.5673796729452834 Z" fill="#ececd9" transform="matrix(1,0,0,1,0,0)" fill-rule="nonzero"></path></g><g clip-path="url(&quot;#SvgjsClipPath1008&quot;)"><path d=" M 3.9435330724733983 -3.1910475209686107 C 3.933275691050143 -3.1910282599670627 3.9232920881496467 -3.1943561276005616 3.9150977396119724 -3.2005259652557525 L 2.1448276569911 -4.532569654704918 C 2.1238884560634625 -4.548274055400646 2.11964481200823 -4.577979563787273 2.135349212703958 -4.5989187647149095 C 2.151082652027041 -4.619826937585014 2.180783889590964 -4.624027541183341 2.20169832271395 -4.60830242455918 L 3.9719304915576736 -3.2763914333300344 C 3.992869692485311 -3.2606870326343067 3.9971133365405436 -3.230981524247679 3.9814089358448155 -3.2100423233200424 C 3.9724746452425967 -3.1981050640897637 3.958443447072355 -3.191068397139522 3.9435330724733983 -3.191047520968611 Z" fill="#ececd9" transform="matrix(1,0,0,1,0,0)" fill-rule="nonzero"></path></g><g clip-path="url(&quot;#SvgjsClipPath1008&quot;)"><path d=" M 3.6114273415405287 -2.8176726436095265 C 3.585253340380982 -2.8176726436095265 3.564035120104821 -2.838890863885689 3.564035120104821 -2.865064865045235 L 3.564035120104821 -3.4883294475905218 C 3.564035120104821 -3.5145034487500677 3.585253340380982 -3.5357216690262296 3.6114273415405287 -3.5357216690262296 C 3.6376013427000737 -3.5357216690262296 3.6588195629762366 -3.5145034487500677 3.6588195629762366 -3.4883294475905218 L 3.6588195629762366 -2.865064865045235 C 3.6588195629762366 -2.838890863885689 3.6376013427000737 -2.8176726436095265 3.6114273415405287 -2.8176726436095265 Z" fill="#ececd9" transform="matrix(1,0,0,1,0,0)" fill-rule="nonzero"></path></g><g clip-path="url(&quot;#SvgjsClipPath1008&quot;)"><path d=" M 2.849644774182954 -3.5673796729452834 C 2.8393876160297675 -3.5673617957165202 2.82940444150682 -3.5706895205575027 2.8212094413215283 -3.5768581172324247 L 2.1448276569911 -4.085793704786209 C 2.1238884560634625 -4.101498105481936 2.11964481200823 -4.131203613868564 2.135349212703958 -4.152142814796201 C 2.1510536133996863 -4.173082015723837 2.1807591217863127 -4.177325659779069 2.20169832271395 -4.161621259083343 L 2.878061150155803 -3.6527235853067066 C 2.8989631225746324 -3.6369843435786833 2.9031551202989747 -3.607283954843457 2.8874258531115 -3.586374475296715 C 2.8785233709168763 -3.5744497730244524 2.8645260253973386 -3.567412472366862 2.849644774182954 -3.5673796729452834 Z" fill="#ececd9" transform="matrix(1,0,0,1,0,0)" fill-rule="nonzero"></path></g><g clip-path="url(&quot;#SvgjsClipPath1008&quot;)"><path d=" M 3.5696274022342336 -1.0738095067726303 L 3.1800443851441376 -1.4212324036735202 C 3.170667358135039 -1.4296032447718252 3.164999886168809 -1.4413563884996403 3.1642888570755785 -1.453906051995168 C 3.1635778279823463 -1.4664557154906963 3.167881491206729 -1.4787737960565073 3.17625300742928 -1.4881502203407404 C 3.184623848527586 -1.4975272473498378 3.1963769922554017 -1.5031947193160682 3.2089266557509295 -1.503905748409299 C 3.221476319246457 -1.5046167775025303 3.233794399812269 -1.5003131142781485 3.2431708240965014 -1.4919415980555968 L 3.5589167601897644 -1.2103938889503412 L 4.036080602493049 -1.7940006605982277 C 4.044037093322669 -1.8037377365711516 4.055537067872734 -1.809913652111173 4.068048709695979 -1.8111687272926469 C 4.080560351519225 -1.8124238024741204 4.0930578924508065 -1.8086551398369184 4.102789893385953 -1.8006924422649497 C 4.112526969358875 -1.792735951435331 4.118702884898897 -1.7812359768852644 4.11995796008037 -1.7687243350620205 C 4.121213035261844 -1.7562126932387763 4.117444372624641 -1.7437151523071925 4.109481675052674 -1.7339831513720467 Z" fill="#ececd9" transform="matrix(1,0,0,1,0,0)" fill-rule="nonzero"></path></g><g clip-path="url(&quot;#SvgjsClipPath1008&quot;)"><path d=" M 3.6114273415405287 -0.25 L 3.5980058644299358 -0.25396198971202555 C 3.084596451172619 -0.40561709830629233 2.740130828889317 -0.8136830817563152 2.6018592836284955 -1.4337818639096955 C 2.5384532057005273 -1.7265058989147106 2.5200747718100778 -2.0271898623599323 2.5473582289774295 -2.3254570317782592 L 2.5528936404411215 -2.3725080292196314 L 2.5999635947710678 -2.3669726177559407 C 3.196802274643802 -2.2967373455882214 3.575522994580834 -2.638056124368192 3.579276458518543 -2.641525234977286 L 3.6115031690948247 -2.6711358949303166 L 3.6437298796711066 -2.641468364311563 C 3.6475212573859626 -2.638056124368192 4.026223020434421 -2.2966994318110725 4.6230048296414346 -2.3669726177559407 L 4.670074783971378 -2.3725080292196314 L 4.675629152323644 -2.32545703177826 C 4.702890368630214 -2.027189527207225 4.684512141118956 -1.7265089402691154 4.621128097672578 -1.4337818639096955 C 4.482837595523183 -0.8136830817563143 4.138390930128456 -0.4057118827491628 3.62498151687114 -0.25396198971202555 Z M 2.6373655359281294 -2.267903918066736 C 2.6183970031378503 -1.9945834855746432 2.637762775133802 -1.7199532296584126 2.694899692751078 -1.451999433829584 C 2.8262140599051397 -0.8660609648870601 3.1345288956772825 -0.49501778482261205 3.61142734154053 -0.34891704458061046 C 4.088325787403775 -0.49501778482261205 4.396659580064492 -0.8660609648870601 4.527954990329979 -1.4519994338295823 C 4.585091907947259 -1.7199532296584117 4.604457679943209 -1.9945834855746427 4.585489147152931 -2.267903918066736 C 4.065899788220398 -2.223468971248616 3.7160124958048515 -2.46181393129308 3.61142734154053 -2.544788232582718 C 3.3329439596645614 -2.3336223984917783 2.9852850469939827 -2.23479776625025 2.6373655359281294 -2.267903918066736 Z" fill="#ececd9" transform="matrix(1,0,0,1,0,0)" fill-rule="nonzero"></path></g><g clip-path="url(&quot;#SvgjsClipPath1008&quot;)"><path d=" M 3.6116737810919948 -1.9587360223087495 C 3.8920825546562865 -1.9594664872939598 4.171341792392692 -1.9228808879384087 4.442099241977052 -1.849942438780937 C 4.449530342298168 -1.9506414308875302 4.450895238275516 -2.040724565392525 4.449681997406763 -2.112628043754781 C 4.152172416907231 -2.1142790289746394 3.861361075175731 -2.201113912835924 3.611654824203421 -2.362858972935321 C 3.3618225207363377 -2.201052167097811 3.070859894440821 -2.1142153254983898 2.7732105994514433 -2.112628043754781 C 2.7718646603626684 -2.0405918671725045 2.77305894434285 -1.95050873266751 2.7803194326668 -1.8497149561180457 C 3.0513681594038693 -1.9228046507395815 3.3309444080751063 -1.9594673575257695 3.611673781091996 -1.9587360223087495 Z" fill="#ffffff" transform="matrix(1,0,0,1,0,0)" fill-rule="nonzero"></path></g></g></g><defs><clipPath id="SvgjsClipPath1023"><path d=" M 0.35567651335024 -4.617761911957747 h 4.33210400454952 v 4.367761911957747 h -4.33210400454952 Z"></path></clipPath><clipPath id="SvgjsClipPath1008"><path d=" M 0.35567651335024 -4.617761911957747 L 4.6877805178997605 -4.617761911957747 L 4.6877805178997605 -0.25 L 0.35567651335024 -0.25 Z"></path></clipPath></defs></svg>